# xmcd CD database file
#
# Track frame offsets:
#	150
#	16798
#	33419
#	46818
#	71094
#	91749
#	110748
#	134044
#	146020
#	166657
#	183924
#
# Disc length: 2736 seconds
#
# Revision: 0
# Processed by: cddbd v1.5.1PL0 Copyright (c) Steve Scherf et al.
# Submitted via: CDex 1.51
#
DISCID=900aae0b
DTITLE=Lowry Olafson - Days That Dissapear Too Soon
DYEAR=1900
DGENRE=Country
TTITLE0=Drivin' All Night
TTITLE1=Fire and Water
TTITLE2=One Horse Rider
TTITLE3=Mama's Wish
TTITLE4=One Thin Wire
TTITLE5=Bread and Honey
TTITLE6=This Ring
TTITLE7=Gypsy Highlands
TTITLE8=Dreams Come True
TTITLE9=Time to Grow
TTITLE10=Fly By Night
EXTD=
EXTT0=
EXTT1=
EXTT2=
EXTT3=
EXTT4=
EXTT5=
EXTT6=
EXTT7=
EXTT8=
EXTT9=
EXTT10=
PLAYORDER=
